<?xml version="1.0" encoding="UTF-8"?>
<svg version="1.1" xmlns="http://www.w3.org/2000/svg" width="45" height="57">
<path d="M0 0 C-0.19043345 14.14401202 -1.43691299 28.09821856 -11.1796875 39.25390625 C-15.0665628 42.9823038 -18.08489732 45 -23.6875 45 C-27.28657428 43.91348701 -28.73715786 42.95910127 -31 40 C-32.89423152 34.31730543 -32.55196546 28.65815062 -30.22265625 23.1328125 C-25.24677076 14.45283335 -17.22479859 8.39596635 -9 3 C-7.72382812 2.14728516 -7.72382812 2.14728516 -6.421875 1.27734375 C-4 0 -4 0 0 0 Z M-22.30859375 16.15234375 C-27.04997389 21.33172668 -28.76547989 27.08165681 -29 34 C-28.34 34.99 -27.68 35.98 -27 37 C-26.95101563 36.30132812 -26.90203125 35.60265625 -26.8515625 34.8828125 C-26.73941406 33.51769531 -26.73941406 33.51769531 -26.625 32.125 C-26.52058594 30.76761719 -26.52058594 30.76761719 -26.4140625 29.3828125 C-26 27 -26 27 -24 25 C-23.67 27.31 -23.34 29.62 -23 32 C-21.09391902 28.78817851 -20.77733753 26.46117397 -20.875 22.75 C-20.90207031 21.41195313 -20.90207031 21.41195313 -20.9296875 20.046875 C-20.95289063 19.37140625 -20.97609375 18.6959375 -21 18 C-20.34 18.33 -19.68 18.66 -19 19 C-18.375 21.5625 -18.375 21.5625 -18 24 C-15.20209497 21.20209497 -15.5884929 18.82020154 -15.34375 14.99609375 C-15.2303125 14.33738281 -15.116875 13.67867187 -15 13 C-14.34 12.67 -13.68 12.34 -13 12 C-12.67 13.32 -12.34 14.64 -12 16 C-10.68 14.02 -9.36 12.04 -8 10 C-8.66 12.64 -9.32 15.28 -10 18 C-9.34 18 -8.68 18 -8 18 C-7.67 18.99 -7.34 19.98 -7 21 C-7.928125 21.2475 -8.85625 21.495 -9.8125 21.75 C-13.16458325 23.06454245 -14.1877803 23.97963384 -16 27 C-14.02 26.67 -12.04 26.34 -10 26 C-10 26.66 -10 27.32 -10 28 C-14.95 30.475 -14.95 30.475 -20 33 C-16.86650268 34.04449911 -16.01031744 33.93423645 -13 33 C-15.17510408 36.26265612 -16.12949953 36.73936409 -19.625 38.1875 C-20.44226562 38.53167969 -21.25953125 38.87585937 -22.1015625 39.23046875 C-22.72804688 39.48441406 -23.35453125 39.73835938 -24 40 C-24 40.33 -24 40.66 -24 41 C-19.27008814 40.71620529 -15.96149063 39.99836162 -12.4140625 36.70703125 C-4.76940867 27.4785403 -3.61286474 16.50652028 -4 5 C-10.32322731 5 -17.83298632 12.03840157 -22.30859375 16.15234375 Z M-19 24 C-18 26 -18 26 -18 26 Z " fill="#30AA47" transform="translate(40,7)"/>
<path d="M0 0 C1 3 1 3 -0.4375 6.1875 C-1.2109375 7.5796875 -1.2109375 7.5796875 -2 9 C-1.01 8.67 -0.02 8.34 1 8 C1 9.32 1 10.64 1 12 C-0.4540625 12.680625 -0.4540625 12.680625 -1.9375 13.375 C-5.07079582 14.65786221 -5.07079582 14.65786221 -6 17 C-4.68 16.67 -3.36 16.34 -2 16 C-2 17.32 -2 18.64 -2 20 C-4.97 21.32 -7.94 22.64 -11 24 C-10.34 24.66 -9.68 25.32 -9 26 C-10.98 26.66 -12.96 27.32 -15 28 C-14.67 27.01 -14.34 26.02 -14 25 C-14.66 25 -15.32 25 -16 25 C-16 22.36 -16 19.72 -16 17 C-16.66 16.67 -17.32 16.34 -18 16 C-17.01 16 -16.02 16 -15 16 C-14.67 16.99 -14.34 17.98 -14 19 C-13.67 15.7 -13.34 12.4 -13 9 C-12.01 9.33 -11.02 9.66 -10 10 C-10 11.32 -10 12.64 -10 14 C-8.41727399 12.41727399 -8.65264253 10.61965997 -8.4375 8.4375 C-8.35371094 7.61121094 -8.26992188 6.78492188 -8.18359375 5.93359375 C-8.12300781 5.29550781 -8.06242187 4.65742188 -8 4 C-7.01 3.67 -6.02 3.34 -5 3 C-4.67 3.66 -4.34 4.32 -4 5 C-2.68 3.35 -1.36 1.7 0 0 Z M-11 15 C-10 17 -10 17 -10 17 Z " fill="#26B143" transform="translate(32,16)"/>
<path d="M0 0 C-0.33 2.31 -0.66 4.62 -1 7 C-1.72445312 6.78214844 -2.44890625 6.56429688 -3.1953125 6.33984375 C-8.88642001 5.65025273 -13.71142959 10.29529206 -18.09765625 13.5625 C-21.57538418 16.39784506 -23.79222228 19.04923988 -26 23 C-26.66 23 -27.32 23 -28 23 C-28.33 23.66 -28.66 24.32 -29 25 C-27.77366909 16.23400496 -20.08029971 10.9001402 -13.4296875 5.765625 C-5.49557522 0 -5.49557522 0 0 0 Z " fill="#269030" transform="translate(40,7)"/>
<path d="M0 0 C0.33 0 0.66 0 1 0 C0.81396455 11.92318099 -0.21363331 25.99933168 -9 35 C-11.25 35.8125 -11.25 35.8125 -13 36 C-12.40251953 35.12601563 -12.40251953 35.12601563 -11.79296875 34.234375 C-5.68227732 24.77841453 -3.71378609 15.12521761 -3 4 C-2.01 4.33 -1.02 4.66 0 5 C0 3.35 0 1.7 0 0 Z " fill="#39A54F" transform="translate(39,9)"/>
<path d="M0 0 C0.99 0 1.98 0 3 0 C2.67 3.63 2.34 7.26 2 11 C2.33 9.35 2.66 7.7 3 6 C3.33 6 3.66 6 4 6 C4 10.33333333 4 14.66666667 4 19 C4.66 19.66 5.32 20.32 6 21 C2.73810844 20.4376049 1.08865152 19.5859495 -1 17 C-2.98807394 11.03577817 -2.29811043 5.74527607 0 0 Z " fill="#4ABD70" transform="translate(10,30)"/>
<path d="M0 0 C1 3 1 3 -0.4375 6.1875 C-1.2109375 7.5796875 -1.2109375 7.5796875 -2 9 C-1.01 8.67 -0.02 8.34 1 8 C1 9.32 1 10.64 1 12 C-1.64 12.66 -4.28 13.32 -7 14 C-7.33 10.7 -7.66 7.4 -8 4 C-7.01 3.67 -6.02 3.34 -5 3 C-4.67 3.66 -4.34 4.32 -4 5 C-2.68 3.35 -1.36 1.7 0 0 Z " fill="#21A838" transform="translate(32,16)"/>
<path d="M0 0 C0.66 0.33 1.32 0.66 2 1 C1.43410156 1.69867187 0.86820313 2.39734375 0.28515625 3.1171875 C-0.44832031 4.02726562 -1.18179687 4.93734375 -1.9375 5.875 C-3.03384766 7.23238281 -3.03384766 7.23238281 -4.15234375 8.6171875 C-6.0036252 10.84502747 -6.0036252 10.84502747 -7 13 C-7.66 13 -8.32 13 -9 13 C-9.33 13.66 -9.66 14.32 -10 15 C-9.47758914 10.89943257 -8.36499384 8.8247439 -5.5625 5.8125 C-4.94503906 5.13832031 -4.32757812 4.46414062 -3.69140625 3.76953125 C-2.47622934 2.49822608 -1.24355775 1.24355775 0 0 Z " fill="#2A9D36" transform="translate(21,17)"/>
<path d="M0 0 C0.33 0 0.66 0 1 0 C1.185625 1.7015625 1.185625 1.7015625 1.375 3.4375 C1.684375 5.2009375 1.684375 5.2009375 2 7 C2.66 7.33 3.32 7.66 4 8 C3.01 9.485 3.01 9.485 2 11 C3.32 10.67 4.64 10.34 6 10 C6 11.32 6 12.64 6 14 C3.69 13.67 1.38 13.34 -1 13 C-2.07310858 9.72814447 -1.89263102 7.57052408 -1.0625 4.25 C-0.86785156 3.45078125 -0.67320313 2.6515625 -0.47265625 1.828125 C-0.31667969 1.22484375 -0.16070313 0.6215625 0 0 Z " fill="#48B861" transform="translate(24,22)"/>
<path d="M0 0 C-0.33 2.31 -0.66 4.62 -1 7 C-2.98 6.34 -4.96 5.68 -7 5 C-6.625 3.0625 -6.625 3.0625 -6 1 C-4 0 -4 0 0 0 Z " fill="#16942B" transform="translate(40,7)"/>
<path d="M0 0 C0.66 0.33 1.32 0.66 2 1 C2.38218767 2.65614657 2.71395102 4.32457024 3 6 C4.25541557 8.51083114 5.50063488 8.87125446 8 10 C6.68 10.99 5.36 11.98 4 13 C3.34 12.67 2.68 12.34 2 12 C2.33 11.34 2.66 10.68 3 10 C2.34 10 1.68 10 1 10 C1 7.36 1 4.72 1 2 C0.34 1.67 -0.32 1.34 -1 1 C-0.67 0.67 -0.34 0.34 0 0 Z " fill="#54D07C" transform="translate(15,31)"/>
<path d="M0 0 C1 3 1 3 -0.4375 6.1875 C-1.2109375 7.5796875 -1.2109375 7.5796875 -2 9 C-3.32 8.67 -4.64 8.34 -6 8 C-6.33 6.35 -6.66 4.7 -7 3 C-6.34 3 -5.68 3 -5 3 C-4.67 3.66 -4.34 4.32 -4 5 C-2.68 3.35 -1.36 1.7 0 0 Z " fill="#389A44" transform="translate(32,16)"/>
<path d="M0 0 C0.99 0.33 1.98 0.66 3 1 C3.22036864 4.85645121 2.60355101 7.49223216 1 11 C0.34 10.67 -0.32 10.34 -1 10 C-0.67 6.7 -0.34 3.4 0 0 Z " fill="#41BC64" transform="translate(19,25)"/>
<path d="M0 0 C0.66 0.66 1.32 1.32 2 2 C-1.13498292 3.85776765 -3.37471432 4.20140476 -7 4 C-5 1 -5 1 -2.5 0.1875 C-1.2625 0.0946875 -1.2625 0.0946875 0 0 Z " fill="#269036" transform="translate(22,48)"/>
<path d="M0 0 C1.32 0 2.64 0 4 0 C3.3125 1.9375 3.3125 1.9375 2 4 C-0.625 4.75 -0.625 4.75 -3 5 C-2.67 4.01 -2.34 3.02 -2 2 C-1.34 2 -0.68 2 0 2 C0 1.34 0 0.68 0 0 Z " fill="#44B560" transform="translate(23,40)"/>
<path d="M0 0 C0.66 0.33 1.32 0.66 2 1 C0.75453595 4.73639216 -0.63404953 5.18756513 -4 7 C-4 5.68 -4 4.36 -4 3 C-2 1.25 -2 1.25 0 0 Z " fill="#137212" transform="translate(26,13)"/>
</svg>
